<?xml version="1.0" encoding="UTF-8"?>
<svg id="Layer_2" data-name="Layer 2" xmlns="http://www.w3.org/2000/svg" viewBox="0 0 89.46 95.8">
  <defs>
    <style>
      .cls-1 {
        fill: none;
        stroke: #000;
        stroke-linecap: round;
        stroke-linejoin: round;
        stroke-width: 7px;
      }
    </style>
  </defs>
  <g id="Dimensions">
    <g>
      <path class="cls-1" d="M10.54,84.32c-3.76-4.13-5.99-9.52-6.75-15.6"/>
      <path class="cls-1" d="M28.48,16.13C44.45,3.05,63.59-.51,75.61,8.48"/>
      <path class="cls-1" d="M28.48,16.13c-3.59,2.94-7.02,6.35-10.17,10.22C7.18,39.99,2.2,55.89,3.79,68.72"/>
      <path class="cls-1" d="M75.61,8.48c.26.2.53.38.78.59,14.59,11.9,12.24,38.93-5.25,60.36-17.49,21.44-43.49,29.17-58.08,17.27-.91-.74-1.75-1.54-2.53-2.39"/>
      <path class="cls-1" d="M75.61,8.48c-12.86,5.04-23.8,14.06-28.17,27.69-2.45,7.64-3.61,15.71-6.88,23.04-5.51,12.36-17.04,21.58-30.02,25.11"/>
    </g>
  </g>
</svg>