<?xml version="1.0" encoding="UTF-8"?>
<svg id="Layer_2" data-name="Layer 2" xmlns="http://www.w3.org/2000/svg" viewBox="0 0 89.48 140.64">
  <defs>
    <style>
      .cls-1 {
        fill: #010101;
        stroke: #010202;
        stroke-linecap: round;
        stroke-linejoin: round;
      }
    </style>
  </defs>
  <g id="Dimensions">
    <path class="cls-1" d="M88.31,24.83c-.3-7.07-.61-14.38-.65-21.32,0-1.03-.53-1.98-1.4-2.54-.87-.55-1.95-.63-2.89-.21-5.64,2.55-12.05,4.85-18.84,7.28-12.51,4.48-25.45,9.12-36.78,16.36C14.54,32.86,6.15,43.36,2.1,56.52-.32,64.41.01,74.06,3.04,83.7c2.86,9.12,7.99,17.55,14.07,23.14.25.23.52.39.81.52,2.44,2.02,5.04,3.57,7.87,4.65-.54,8.97-.11,17.76,1.34,25.63.27,1.46,1.55,2.49,2.98,2.49.18,0,.37-.02.55-.05,1.65-.3,2.74-1.89,2.44-3.54-1.28-6.97-1.74-14.8-1.33-22.97,1.75.27,3.59.41,5.52.41.39,0,.8-.02,1.2-.03.16.03.32.05.49.05h.07c2.63,0,5.37-.33,8.14-.98,15.89-3.74,27.49-9.89,36.21-28.93,6.79-14.81,5.88-36.4,4.91-59.26ZM77.88,81.56c-7.72,16.86-17.6,22.13-32.05,25.54-5.5.98-9.92,1.06-13.59.44,2.14-20.9,10-43.1,24.77-58.22,1.17-1.2,1.15-3.12-.05-4.29-1.2-1.17-3.12-1.15-4.29.05-11.11,11.38-19.3,27.07-23.69,45.38-1.19,4.98-2.07,10.1-2.64,15.22-3.23-1.56-5.82-3.83-8.21-6.58-.02-.03-.05-.04-.07-.07-9.27-10.99-13.87-28.6-10.14-40.74C16.03,31.88,42.89,22.26,66.59,13.77c5.29-1.89,10.35-3.71,15.07-5.65.11,5.62.36,11.37.59,16.97.89,21.14,1.81,42.99-4.37,56.47Z"/>
  </g>
</svg>