<?xml version="1.0" encoding="UTF-8"?>
<svg id="Layer_2" data-name="Layer 2" xmlns="http://www.w3.org/2000/svg" viewBox="0 0 111.68 108.12">
  <defs>
    <style>
      .cls-1 {
        fill: none;
        stroke: #010101;
        stroke-linecap: round;
        stroke-linejoin: round;
        stroke-width: 7px;
      }
    </style>
  </defs>
  <g id="Layer_1-2" data-name="Layer 1">
    <g>
      <path class="cls-1" d="M55.8,68.33c6.68,0,12.1-5.38,12.1-12.01s-5.42-12.01-12.1-12.01-12.1,5.38-12.1,12.01,5.42,12.01,12.1,12.01Z"/>
      <path class="cls-1" d="M107.17,40.83c-1.71-5.22-5.43-9.54-10.33-12.02-4.9-2.48-10.58-2.91-15.8-1.21-1.86.53-3.63,1.34-5.24,2.42.52-1.86.79-3.79.81-5.73,0-5.52-2.19-10.81-6.09-14.71-3.9-3.9-9.19-6.09-14.71-6.09s-10.81,2.19-14.71,6.09c-3.9,3.9-6.09,9.19-6.09,14.71.01,1.94.29,3.86.81,5.73-1.6-1.1-3.37-1.95-5.24-2.5-2.58-.84-5.3-1.17-8-.96-2.7.21-5.34.95-7.76,2.18-2.42,1.23-4.57,2.92-6.34,4.98-1.76,2.06-3.11,4.45-3.95,7.03s-1.17,5.3-.96,8c.21,2.7.95,5.34,2.18,7.76,1.23,2.42,2.92,4.57,4.98,6.34,2.06,1.76,4.45,3.11,7.03,3.95,1.89.56,3.84.88,5.81.97-1.5,1.21-2.86,2.59-4.03,4.11-1.61,2.19-2.76,4.67-3.4,7.3-.64,2.64-.75,5.37-.32,8.05.43,2.68,1.38,5.24,2.81,7.55,1.43,2.31,3.3,4.31,5.5,5.88,4.46,3.22,10.01,4.55,15.44,3.71,5.44-.85,10.32-3.8,13.59-8.22,1.13-1.58,2.03-3.32,2.66-5.16.66,1.85,1.58,3.58,2.74,5.16,3.27,4.42,8.15,7.38,13.59,8.22,5.44.85,10.98-.49,15.44-3.71,2.21-1.58,4.08-3.58,5.5-5.88,1.43-2.31,2.38-4.87,2.81-7.55.43-2.68.32-5.41-.32-8.05-.64-2.64-1.79-5.12-3.4-7.3-1.18-1.53-2.53-2.91-4.03-4.11,1.94-.09,3.86-.42,5.73-.97,2.58-.82,4.98-2.15,7.05-3.9,2.07-1.75,3.77-3.9,5.01-6.31,1.24-2.41,1.98-5.05,2.2-7.75.21-2.7-.11-5.42-.95-8h0Z"/>
    </g>
  </g>
</svg>