<?xml version="1.0" encoding="UTF-8"?>
<svg id="Layer_2" data-name="Layer 2" xmlns="http://www.w3.org/2000/svg" viewBox="0 0 73.86 96.26">
  <defs>
    <style>
      .cls-1 {
        fill: none;
        stroke: #000;
        stroke-linecap: round;
        stroke-miterlimit: 10;
        stroke-width: 7px;
      }
    </style>
  </defs>
  <g id="Dimensions">
    <path class="cls-1" d="M42.34,3.5c-7.39,2.05-11.9,10.03-12.27,17.69-.38,7.66,2.5,15.07,5.54,22.12,3.04,7.04,6.33,14.19,6.86,21.84.73,10.61-4.37,21.44-13.02,27.62"/>
    <path class="cls-1" d="M65.11,17.97c-4.87,1.97-7.31,7.75-6.97,13,.34,5.24,2.88,10.06,5.5,14.62,2.62,4.56,5.42,9.16,6.38,14.32,1.33,7.16-1.3,14.93-6.7,19.81"/>
    <path class="cls-1" d="M10.5,17.97c-4.87,1.97-7.31,7.75-6.97,13,.34,5.24,2.88,10.06,5.5,14.62,2.62,4.56,5.42,9.16,6.38,14.32,1.33,7.16-1.3,14.93-6.7,19.81"/>
  </g>
</svg>