<?xml version="1.0" encoding="UTF-8"?>
<svg id="Layer_2" data-name="Layer 2" xmlns="http://www.w3.org/2000/svg" viewBox="0 0 109.86 114.36">
  <defs>
    <style>
      .cls-1 {
        stroke: #010101;
        stroke-linecap: round;
        stroke-linejoin: round;
        stroke-width: 2px;
      }
    </style>
  </defs>
  <g id="Layer_1-2" data-name="Layer 1">
    <g>
      <path class="cls-1" d="M1.53,89.81c1.05-1.53,3.06-1.54,5.39-1.54.6,0,1.22,0,1.86-.03l.56-.02c11.2-.47,23.9-1.01,32.3-9.29,6.76-6.66,10.84-15.48,14.44-23.94.51-1.21,1.04-2.69,1.61-4.26,2.6-7.28,6.16-17.21,14.49-17.53,4.72-2.51,7.52-.95,9.2-.01.23.13.54.3.72.38,2.67-1.53,3.24-5.2,3.75-8.45.05-.3.09-.6.14-.88.79-4.85,1.77-10.47,3.58-15.75.51-1.48,1.12-3.03,2.15-4.35,1.12-1.43,2.69-2.43,4.56-2.86,3.45-.81,7.76.36,10.49,2.84,1.78,1.62,3.06,5.7,1.18,8.01-2.24,2.75-4.86.81-6.27-.23-1.74-1.29-2.16-1.36-2.68-.95-2.29,1.79-3.04,5.33-3.51,8.89-.06.45-.12.9-.18,1.36-.78,5.74-1.67,12.25,1.21,16.87.14.23,1,.58,1.56.81,2.09.86,5.54,2.28,5.12,7.4,4.85,8.17,5.91,17.46,3.07,26.9-2.51,8.32-8.01,16.52-15.49,23.09-10.8,9.48-25.57,15.63-40.52,16.87-1.94.16-3.86.24-5.76.24-13.68,0-26.44-4.13-36.42-11.87-2.21-1.72-5.24-4.06-6.49-7.28-.48-1.23-1-3.03-.06-4.4h0ZM96.92,41.64c-1.14-.47-2.32-.95-2.97-2-3.46-5.54-2.45-12.93-1.65-18.87.06-.46.12-.91.18-1.35.55-4.19,1.5-8.41,4.64-10.87,2.49-1.95,4.9-.16,6.34.9,1.71,1.26,1.8,1.15,2.13.75.55-.67.15-2.95-.87-3.88-2-1.82-5.27-2.72-7.76-2.13-1.2.28-2.17.88-2.87,1.78-.72.92-1.18,2.05-1.67,3.47-1.73,5.06-2.66,10.31-3.46,15.26-.05.28-.09.57-.14.86-.59,3.82-1.33,8.58-5.51,10.76-1.3.68-2.48.02-3.42-.51-1.29-.72-2.73-1.53-5.41-.4,1.18,2.58,3.67,5.77,8.91,8.24,4.27,2.02,9.46,3.02,13.9,2.68.72-.06,2.17-.3,2.9-.53.16-2.76-1.37-3.39-3.28-4.17h0ZM4.4,93.12c.94,2.44,3.48,4.41,5.52,5.99,10.77,8.35,25.01,12.26,40.08,11,14.32-1.2,28.45-7.08,38.77-16.14,7.06-6.2,12.24-13.9,14.59-21.69,2.49-8.27,1.7-16.4-2.26-23.6-.44.14-.88.23-1.22.3-1.11.23-2.2.35-2.35.36-.66.05-1.34.08-2.02.08-9.36,0-20.34-4.73-23.94-13.15-5.82.84-8.71,8.91-11.05,15.47-.58,1.61-1.12,3.14-1.67,4.43-3.72,8.73-7.95,17.85-15.09,24.9-9.23,9.1-22.54,9.66-34.29,10.16l-.56.02c-.69.03-1.35.03-1.98.03-1,0-2.5,0-2.9.24-.02.12-.03.56.37,1.61h0Z"/>
      <path class="cls-1" d="M78.18,87.7c8.16-4.9,13.96-15.62,14.45-26.68.04-.93.69-1.65,1.45-1.59.76.05,1.35.84,1.3,1.77-.55,12.43-6.82,24.01-15.98,29.51-.2.12-.4.18-.61.18-.51,0-1-.34-1.24-.94-.34-.83-.06-1.84.63-2.25h0Z"/>
    </g>
  </g>
</svg>