<?xml version="1.0" encoding="UTF-8"?>
<svg id="Layer_2" data-name="Layer 2" xmlns="http://www.w3.org/2000/svg" viewBox="0 0 130.53 130.53">
  <g id="Dimensions">
    <g>
      <path d="M62.84,100.33c-8.61,0-16.97-3.1-23.25-9.39-13.33-13.33-12.34-36,2.2-50.54,7-7,16.09-11.11,25.58-11.56,9.6-.45,18.47,2.87,24.97,9.37,6.5,6.5,9.82,15.36,9.37,24.97-.45,9.49-4.56,18.58-11.56,25.58h0c-7.68,7.68-17.64,11.58-27.29,11.58ZM69.09,35.01c-.48,0-.95.01-1.43.03-7.94.38-15.57,3.84-21.48,9.75-12.12,12.12-13.1,30.85-2.2,41.76,10.91,10.91,29.63,9.92,41.76-2.2h0c5.91-5.91,9.37-13.54,9.75-21.48.37-7.83-2.31-15.03-7.55-20.27-4.92-4.92-11.57-7.59-18.84-7.59Z"/>
      <path d="M46.08,74.59c-1.45,0-2.74-1.02-3.04-2.49-1.6-7.88,1.29-16.66,7.54-22.91,5.06-5.06,11.8-7.96,18.5-7.96,2.22,0,4.39.32,6.43.96,1.64.51,2.56,2.25,2.05,3.89-.51,1.64-2.26,2.55-3.89,2.05-6.04-1.88-13.56.33-18.69,5.46-4.8,4.8-7.04,11.42-5.85,17.28.34,1.68-.75,3.32-2.43,3.66-.21.04-.42.06-.62.06Z"/>
      <path d="M108.78,49.73c-6.34,0-16.83-3.11-20.84-7.13-4.01-4.01-7.13-14.5-7.13-20.84,0-13.56,6.83-20.55,7.13-20.84.76-.76,1.86-1.07,2.91-.83,1.05.25,1.89,1.02,2.23,2.04.02.07,2.79,7.91,10.47,10.47.48.11,1.2.18,1.93.25,2.36.25,5.6.6,8.61,3.6,3.38,3.38,3.92,8.98,4,10.91.66,1.59,3.62,7.86,10.32,10.09,1.02.34,1.79,1.19,2.04,2.23.25,1.05-.07,2.15-.83,2.91-.29.29-7.28,7.13-20.84,7.13ZM89.78,9.16c-1.36,2.73-2.76,6.91-2.76,12.6s2.99,14.13,5.31,16.45c2.32,2.32,10.71,5.31,16.45,5.31s9.75-1.36,12.48-2.71c-6.69-4.49-9.09-11.49-9.21-11.85-.11-.32-.16-.65-.16-.98,0-1.28-.43-5.36-2.2-7.13-1.45-1.45-2.81-1.6-4.87-1.82-.96-.1-1.95-.21-3.01-.47-6.03-2-9.82-6.08-12.02-9.39Z"/>
      <path d="M40.4,130.53c-.24,0-.48-.03-.71-.08-1.05-.25-1.89-1.02-2.23-2.04-2.26-6.77-8.48-9.67-10.08-10.32-1.92-.08-7.53-.61-10.92-4-3.01-3.01-3.35-6.24-3.6-8.61-.08-.73-.14-1.45-.32-2.16-2.52-7.53-10.32-10.21-10.4-10.24-1.02-.34-1.79-1.19-2.04-2.23-.25-1.05.07-2.15.83-2.91.29-.29,7.28-7.13,20.84-7.13,6.34,0,16.83,3.11,20.84,7.13,4.01,4.01,7.13,14.5,7.13,20.84,0,13.56-6.83,20.55-7.13,20.84-.59.59-1.38.91-2.2.91ZM9.17,89.78c3.31,2.18,7.35,5.91,9.31,11.8.33,1.29.44,2.28.54,3.24.22,2.06.36,3.42,1.82,4.87,1.77,1.77,5.85,2.19,7.14,2.2.33,0,.66.06.97.16.36.12,7.36,2.53,11.85,9.21,1.34-2.73,2.71-6.88,2.71-12.48s-2.99-14.13-5.31-16.45c-2.32-2.32-10.71-5.31-16.45-5.31s-9.85,1.39-12.58,2.76Z"/>
    </g>
  </g>
</svg>